<svg width="439" height="57" viewBox="0 0 439 57" fill="none" xmlns="http://www.w3.org/2000/svg">
<path d="M0 20C0 8.9543 8.95431 0 20 0H419C430.046 0 439 8.95431 439 20V37C439 48.0457 430.046 57 419 57H20C8.95431 57 0 48.0457 0 37V20Z" fill="#FFCB75"/>
<path d="M153.663 23.2031C153.534 22.7538 153.352 22.3568 153.119 22.0121C152.885 21.6612 152.598 21.3658 152.26 21.1257C151.927 20.8795 151.546 20.6918 151.115 20.5625C150.69 20.4332 150.219 20.3686 149.702 20.3686C148.736 20.3686 147.887 20.6087 147.154 21.0888C146.428 21.5689 145.861 22.2675 145.455 23.1847C145.049 24.0956 144.846 25.2098 144.846 26.527C144.846 27.8442 145.046 28.9645 145.446 29.8878C145.846 30.8111 146.412 31.5159 147.145 32.0021C147.877 32.4822 148.742 32.7223 149.739 32.7223C150.644 32.7223 151.417 32.5623 152.057 32.2422C152.703 31.916 153.195 31.4574 153.534 30.8665C153.879 30.2756 154.051 29.5769 154.051 28.7706L154.864 28.8906H149.989V25.8807H157.901V28.2628C157.901 29.9247 157.55 31.3527 156.849 32.5469C156.147 33.7348 155.181 34.652 153.949 35.2983C152.718 35.9384 151.309 36.2585 149.721 36.2585C147.948 36.2585 146.391 35.8677 145.049 35.0859C143.707 34.2981 142.661 33.1809 141.91 31.7344C141.165 30.2817 140.793 28.5582 140.793 26.5639C140.793 25.0312 141.014 23.6648 141.457 22.4645C141.907 21.258 142.534 20.2363 143.341 19.3991C144.147 18.562 145.086 17.925 146.157 17.4879C147.228 17.0509 148.388 16.8324 149.638 16.8324C150.709 16.8324 151.706 16.9893 152.629 17.3033C153.552 17.611 154.371 18.0481 155.085 18.6143C155.805 19.1806 156.393 19.8546 156.849 20.6364C157.304 21.4119 157.597 22.2675 157.726 23.2031H153.663ZM167.293 36.277C165.835 36.277 164.579 35.9815 163.526 35.3906C162.48 34.7936 161.674 33.9503 161.107 32.8608C160.541 31.7652 160.258 30.4695 160.258 28.9737C160.258 27.5149 160.541 26.2346 161.107 25.1328C161.674 24.031 162.471 23.1723 163.499 22.5568C164.533 21.9413 165.745 21.6335 167.136 21.6335C168.072 21.6335 168.943 21.7843 169.749 22.0859C170.562 22.3814 171.27 22.8277 171.873 23.4247C172.482 24.0218 172.956 24.7727 173.295 25.6776C173.633 26.5762 173.803 27.6288 173.803 28.8352V29.9155H161.828V27.478H170.1C170.1 26.9117 169.977 26.41 169.731 25.973C169.485 25.536 169.143 25.1944 168.706 24.9482C168.275 24.6958 167.774 24.5696 167.201 24.5696C166.604 24.5696 166.075 24.7081 165.613 24.9851C165.158 25.2559 164.801 25.6222 164.542 26.0838C164.283 26.5393 164.151 27.0471 164.145 27.6072V29.9247C164.145 30.6264 164.274 31.2327 164.533 31.7436C164.797 32.2545 165.17 32.6484 165.65 32.9254C166.13 33.2024 166.699 33.3409 167.358 33.3409C167.795 33.3409 168.195 33.2794 168.558 33.1562C168.921 33.0331 169.232 32.8485 169.491 32.6023C169.749 32.3561 169.946 32.0545 170.082 31.6974L173.72 31.9375C173.535 32.8116 173.156 33.5748 172.584 34.2273C172.018 34.8736 171.285 35.3783 170.386 35.7415C169.494 36.0985 168.463 36.277 167.293 36.277ZM183.913 21.8182V24.7727H175.372V21.8182H183.913ZM177.311 18.4205H181.244V31.642C181.244 32.0052 181.3 32.2884 181.411 32.4915C181.521 32.6884 181.675 32.8269 181.872 32.907C182.075 32.987 182.309 33.027 182.574 33.027C182.759 33.027 182.943 33.0116 183.128 32.9808C183.313 32.9439 183.454 32.9162 183.553 32.8977L184.171 35.8246C183.974 35.8861 183.697 35.9569 183.34 36.0369C182.983 36.1231 182.549 36.1754 182.038 36.1939C181.091 36.2308 180.26 36.1046 179.546 35.8153C178.838 35.526 178.287 35.0767 177.893 34.4673C177.499 33.858 177.305 33.0885 177.311 32.1591V18.4205ZM202.824 22.5291C202.75 21.7843 202.433 21.2057 201.873 20.7933C201.313 20.3809 200.553 20.1747 199.593 20.1747C198.94 20.1747 198.389 20.267 197.94 20.4517C197.491 20.6302 197.146 20.8795 196.906 21.1996C196.672 21.5196 196.555 21.8828 196.555 22.2891C196.543 22.6276 196.613 22.9231 196.767 23.1754C196.927 23.4278 197.146 23.6463 197.423 23.831C197.7 24.0095 198.02 24.1664 198.383 24.3018C198.746 24.4311 199.134 24.5419 199.546 24.6342L201.245 25.0405C202.07 25.2251 202.827 25.4714 203.517 25.7791C204.206 26.0869 204.803 26.4654 205.308 26.9148C205.813 27.3641 206.203 27.8935 206.48 28.5028C206.764 29.1122 206.908 29.8108 206.914 30.5987C206.908 31.7559 206.613 32.7592 206.028 33.6087C205.449 34.4519 204.612 35.1075 203.517 35.5753C202.427 36.0369 201.113 36.2678 199.574 36.2678C198.048 36.2678 196.718 36.0339 195.585 35.5661C194.459 35.0982 193.579 34.4058 192.945 33.4886C192.317 32.5653 191.988 31.4235 191.957 30.0632H195.826C195.869 30.6972 196.05 31.2266 196.37 31.6513C196.697 32.0698 197.13 32.3868 197.672 32.6023C198.22 32.8116 198.839 32.9162 199.528 32.9162C200.205 32.9162 200.793 32.8177 201.291 32.6207C201.796 32.4238 202.187 32.1499 202.464 31.799C202.741 31.4482 202.88 31.045 202.88 30.5895C202.88 30.1648 202.753 29.8078 202.501 29.5185C202.255 29.2292 201.892 28.983 201.411 28.7798C200.938 28.5767 200.356 28.392 199.666 28.2259L197.608 27.7088C196.013 27.321 194.755 26.7147 193.831 25.8899C192.908 25.0651 192.449 23.9541 192.456 22.5568C192.449 21.4119 192.754 20.4117 193.37 19.5561C193.991 18.7005 194.844 18.0327 195.927 17.5526C197.01 17.0724 198.242 16.8324 199.62 16.8324C201.024 16.8324 202.249 17.0724 203.295 17.5526C204.348 18.0327 205.166 18.7005 205.751 19.5561C206.336 20.4117 206.637 21.4027 206.656 22.5291H202.824ZM217.073 21.8182V24.7727H208.532V21.8182H217.073ZM210.471 18.4205H214.405V31.642C214.405 32.0052 214.46 32.2884 214.571 32.4915C214.682 32.6884 214.835 32.8269 215.032 32.907C215.236 32.987 215.469 33.027 215.734 33.027C215.919 33.027 216.103 33.0116 216.288 32.9808C216.473 32.9439 216.614 32.9162 216.713 32.8977L217.331 35.8246C217.134 35.8861 216.857 35.9569 216.5 36.0369C216.143 36.1231 215.709 36.1754 215.199 36.1939C214.251 36.2308 213.42 36.1046 212.706 35.8153C211.998 35.526 211.447 35.0767 211.053 34.4673C210.659 33.858 210.465 33.0885 210.471 32.1591V18.4205ZM223.679 36.2678C222.774 36.2678 221.968 36.1108 221.26 35.7969C220.552 35.4768 219.992 35.0059 219.58 34.3842C219.173 33.7564 218.97 32.9747 218.97 32.0391C218.97 31.2512 219.115 30.5895 219.404 30.054C219.694 29.5185 220.087 29.0876 220.586 28.7614C221.085 28.4351 221.651 28.1889 222.285 28.0227C222.925 27.8565 223.596 27.7396 224.298 27.6719C225.122 27.5857 225.787 27.5057 226.292 27.4318C226.797 27.3518 227.163 27.2348 227.391 27.081C227.618 26.9271 227.732 26.6993 227.732 26.3977V26.3423C227.732 25.7576 227.548 25.3052 227.178 24.9851C226.815 24.665 226.298 24.505 225.627 24.505C224.919 24.505 224.356 24.6619 223.938 24.9759C223.519 25.2836 223.242 25.6714 223.107 26.1392L219.469 25.8438C219.653 24.982 220.017 24.2372 220.558 23.6094C221.1 22.9754 221.799 22.4891 222.654 22.1506C223.516 21.8059 224.513 21.6335 225.646 21.6335C226.434 21.6335 227.188 21.7259 227.908 21.9105C228.634 22.0952 229.277 22.3814 229.837 22.7692C230.404 23.157 230.85 23.6555 231.176 24.2649C231.502 24.8681 231.666 25.5914 231.666 26.4347V36H227.935V34.0334H227.825C227.597 34.4766 227.292 34.8674 226.911 35.206C226.529 35.5384 226.07 35.8 225.535 35.9908C224.999 36.1754 224.381 36.2678 223.679 36.2678ZM224.805 33.5533C225.384 33.5533 225.895 33.4394 226.338 33.2116C226.781 32.9777 227.129 32.6638 227.381 32.2699C227.634 31.8759 227.76 31.4297 227.76 30.9311V29.4261C227.637 29.5062 227.468 29.58 227.252 29.6477C227.043 29.7093 226.806 29.7678 226.541 29.8232C226.277 29.8724 226.012 29.9186 225.747 29.9616C225.483 29.9986 225.243 30.0324 225.027 30.0632C224.565 30.1309 224.162 30.2386 223.818 30.3864C223.473 30.5341 223.205 30.7341 223.014 30.9865C222.823 31.2327 222.728 31.5405 222.728 31.9098C222.728 32.4453 222.922 32.8546 223.31 33.1378C223.704 33.4148 224.202 33.5533 224.805 33.5533ZM234.717 36V21.8182H238.53V24.2926H238.678C238.937 23.4124 239.37 22.7476 239.98 22.2983C240.589 21.8428 241.291 21.6151 242.085 21.6151C242.282 21.6151 242.494 21.6274 242.722 21.652C242.95 21.6766 243.15 21.7105 243.322 21.7536V25.2436C243.138 25.1882 242.882 25.139 242.556 25.0959C242.23 25.0528 241.931 25.0312 241.66 25.0312C241.082 25.0312 240.565 25.1574 240.109 25.4098C239.66 25.656 239.303 26.0007 239.038 26.4439C238.78 26.8871 238.65 27.398 238.65 27.9766V36H234.717ZM253.61 21.8182V24.7727H245.07V21.8182H253.61ZM247.008 18.4205H250.942V31.642C250.942 32.0052 250.997 32.2884 251.108 32.4915C251.219 32.6884 251.373 32.8269 251.57 32.907C251.773 32.987 252.007 33.027 252.271 33.027C252.456 33.027 252.641 33.0116 252.825 32.9808C253.01 32.9439 253.151 32.9162 253.25 32.8977L253.869 35.8246C253.672 35.8861 253.395 35.9569 253.038 36.0369C252.681 36.1231 252.247 36.1754 251.736 36.1939C250.788 36.2308 249.957 36.1046 249.243 35.8153C248.535 35.526 247.984 35.0767 247.59 34.4673C247.196 33.858 247.002 33.0885 247.008 32.1591V18.4205ZM262.483 36.277C261.024 36.277 259.768 35.9815 258.716 35.3906C257.669 34.7936 256.863 33.9503 256.297 32.8608C255.73 31.7652 255.447 30.4695 255.447 28.9737C255.447 27.5149 255.73 26.2346 256.297 25.1328C256.863 24.031 257.66 23.1723 258.688 22.5568C259.722 21.9413 260.935 21.6335 262.326 21.6335C263.262 21.6335 264.132 21.7843 264.939 22.0859C265.751 22.3814 266.459 22.8277 267.062 23.4247C267.672 24.0218 268.146 24.7727 268.484 25.6776C268.823 26.5762 268.992 27.6288 268.992 28.8352V29.9155H257.017V27.478H265.29C265.29 26.9117 265.167 26.41 264.92 25.973C264.674 25.536 264.333 25.1944 263.896 24.9482C263.465 24.6958 262.963 24.5696 262.391 24.5696C261.793 24.5696 261.264 24.7081 260.802 24.9851C260.347 25.2559 259.99 25.6222 259.731 26.0838C259.473 26.5393 259.341 27.0471 259.334 27.6072V29.9247C259.334 30.6264 259.464 31.2327 259.722 31.7436C259.987 32.2545 260.359 32.6484 260.839 32.9254C261.32 33.2024 261.889 33.3409 262.547 33.3409C262.985 33.3409 263.385 33.2794 263.748 33.1562C264.111 33.0331 264.422 32.8485 264.68 32.6023C264.939 32.3561 265.136 32.0545 265.271 31.6974L268.909 31.9375C268.724 32.8116 268.346 33.5748 267.773 34.2273C267.207 34.8736 266.475 35.3783 265.576 35.7415C264.683 36.0985 263.652 36.277 262.483 36.277ZM276.785 36.2308C275.708 36.2308 274.732 35.9538 273.858 35.3999C272.99 34.8397 272.301 34.018 271.79 32.9347C271.285 31.8452 271.033 30.5095 271.033 28.9276C271.033 27.3026 271.294 25.9515 271.817 24.8743C272.341 23.791 273.036 22.9815 273.904 22.446C274.778 21.9044 275.735 21.6335 276.775 21.6335C277.57 21.6335 278.231 21.7689 278.761 22.0398C279.296 22.3045 279.727 22.6368 280.053 23.0369C280.386 23.4309 280.638 23.8187 280.81 24.2003H280.93V17.0909H284.854V36H280.976V33.7287H280.81C280.626 34.1226 280.364 34.5135 280.025 34.9013C279.693 35.2829 279.259 35.5999 278.724 35.8523C278.194 36.1046 277.548 36.2308 276.785 36.2308ZM278.031 33.1009C278.665 33.1009 279.201 32.9285 279.638 32.5838C280.081 32.233 280.419 31.7436 280.653 31.1158C280.893 30.4879 281.013 29.7524 281.013 28.9091C281.013 28.0658 280.896 27.3333 280.663 26.7116C280.429 26.09 280.09 25.6098 279.647 25.2713C279.204 24.9328 278.665 24.7635 278.031 24.7635C277.385 24.7635 276.84 24.9389 276.397 25.2898C275.954 25.6406 275.618 26.1269 275.391 26.7486C275.163 27.3703 275.049 28.0904 275.049 28.9091C275.049 29.7339 275.163 30.4633 275.391 31.0973C275.624 31.7251 275.96 32.2176 276.397 32.5746C276.84 32.9254 277.385 33.1009 278.031 33.1009Z" fill="black"/>
</svg>
